<svg width="18" height="20" viewBox="0 0 18 20" fill="none" xmlns="http://www.w3.org/2000/svg">
<path fill-rule="evenodd" clip-rule="evenodd" d="M8.85949 1.54044C7.23942 1.54044 5.6857 2.16018 4.54013 3.26332C3.39457 4.36645 2.751 5.86263 2.751 7.4227H1.39355C1.39355 5.51594 2.18014 3.68729 3.58028 2.33901C4.98041 0.990731 6.8794 0.233276 8.85949 0.233276C10.8396 0.233276 12.7386 0.990731 14.1387 2.33901C15.5388 3.68729 16.3254 5.51594 16.3254 7.4227H14.968C14.968 5.86263 14.3244 4.36645 13.1788 3.26332C12.0333 2.16018 10.4796 1.54044 8.85949 1.54044Z" fill="#323334"/>
<path fill-rule="evenodd" clip-rule="evenodd" d="M0.185521 7.01361C0.249134 6.9373 0.329727 6.87572 0.421355 6.83341C0.512983 6.7911 0.613307 6.76915 0.714924 6.76917H17.0042C17.1058 6.7692 17.206 6.79119 17.2976 6.8335C17.3892 6.87581 17.4697 6.93737 17.5333 7.01364C17.5968 7.08991 17.6418 7.17895 17.6649 7.27418C17.688 7.36942 17.6886 7.46843 17.6667 7.56392L15.188 18.3049C15.0876 18.7404 14.836 19.13 14.4747 19.4092C14.1134 19.6885 13.664 19.8407 13.2007 19.8408H4.51848C4.05519 19.8407 3.60579 19.6885 3.24448 19.4092C2.88318 19.13 2.63156 18.7404 2.53118 18.3049L0.0524921 7.56392C0.0307129 7.46865 0.0313565 7.3699 0.0543756 7.2749C0.0773948 7.1799 0.122206 7.09106 0.185521 7.01491V7.01361ZM1.56061 8.07633L3.85605 18.0213C3.88942 18.1665 3.97325 18.2965 4.09369 18.3896C4.21414 18.4828 4.36399 18.5336 4.51848 18.5337H13.2007C13.3552 18.5336 13.505 18.4828 13.6255 18.3896C13.7459 18.2965 13.8297 18.1665 13.8631 18.0213L16.1572 8.07633H1.56197H1.56061Z" fill="#323334"/>
</svg>
